<svg xmlns="http://www.w3.org/2000/svg" xmlns:xlink="http://www.w3.org/1999/xlink" width="500" zoomAndPan="magnify" viewBox="0 0 375 374.999991" height="500" preserveAspectRatio="xMidYMid meet" version="1.0"><defs><g/><clipPath id="f8fe5a8a44"><path d="M 30.234375 0 L 295 0 L 295 232 L 30.234375 232 Z M 30.234375 0 " clip-rule="nonzero"/></clipPath></defs><path fill="#000000" d="M 333.570312 216.957031 C 332.429688 215.425781 331.144531 214.03125 329.714844 212.769531 C 328.28125 211.507812 326.734375 210.410156 325.070312 209.476562 C 323.40625 208.542969 321.664062 207.792969 319.839844 207.226562 C 318.019531 206.664062 316.15625 206.292969 314.257812 206.121094 C 303.398438 204.914062 275.027344 203.976562 261.460938 209.097656 L 226.832031 221.828125 L 153.359375 185.371094 C 152.503906 184.941406 151.597656 184.710938 150.644531 184.671875 C 149.6875 184.636719 148.765625 184.800781 147.882812 185.160156 L 120.800781 196.148438 C 120.539062 196.257812 120.28125 196.386719 120.035156 196.53125 C 119.785156 196.675781 119.546875 196.832031 119.320312 197.007812 C 119.09375 197.183594 118.875 197.371094 118.671875 197.574219 C 118.46875 197.773438 118.277344 197.988281 118.101562 198.214844 C 117.925781 198.441406 117.765625 198.679688 117.617188 198.925781 C 117.472656 199.171875 117.34375 199.429688 117.230469 199.691406 C 117.117188 199.957031 117.019531 200.226562 116.941406 200.5 C 116.859375 200.777344 116.800781 201.058594 116.757812 201.339844 C 116.714844 201.625 116.6875 201.910156 116.679688 202.195312 C 116.675781 202.484375 116.6875 202.769531 116.714844 203.054688 C 116.746094 203.339844 116.792969 203.625 116.859375 203.902344 C 116.925781 204.183594 117.007812 204.457031 117.109375 204.726562 C 117.210938 204.996094 117.328125 205.253906 117.460938 205.507812 C 117.59375 205.761719 117.746094 206.007812 117.910156 206.242188 C 118.074219 206.476562 118.253906 206.699219 118.449219 206.910156 C 118.640625 207.121094 118.847656 207.320312 119.066406 207.507812 L 164.347656 244.8125 L 121.460938 260.609375 L 95.152344 239.621094 C 94.289062 238.9375 93.316406 238.492188 92.234375 238.285156 C 91.148438 238.078125 90.082031 238.136719 89.027344 238.460938 L 63.449219 246.347656 C 63.1875 246.429688 62.933594 246.527344 62.683594 246.644531 C 62.4375 246.757812 62.195312 246.886719 61.964844 247.03125 C 61.730469 247.171875 61.507812 247.332031 61.292969 247.5 C 61.082031 247.671875 60.878906 247.855469 60.6875 248.050781 C 60.496094 248.246094 60.316406 248.453125 60.152344 248.667969 C 59.984375 248.886719 59.832031 249.113281 59.695312 249.347656 C 59.554688 249.585938 59.433594 249.828125 59.324219 250.078125 C 59.214844 250.332031 59.121094 250.585938 59.042969 250.851562 C 58.964844 251.113281 58.90625 251.378906 58.859375 251.648438 C 58.816406 251.917969 58.785156 252.1875 58.773438 252.460938 C 58.761719 252.734375 58.765625 253.007812 58.789062 253.28125 C 58.808594 253.554688 58.847656 253.824219 58.902344 254.09375 C 58.953125 254.359375 59.023438 254.625 59.113281 254.882812 C 59.199219 255.144531 59.300781 255.398438 59.417969 255.644531 C 59.535156 255.890625 59.664062 256.132812 59.8125 256.363281 C 59.957031 256.59375 60.117188 256.816406 60.292969 257.027344 L 100.324219 304.925781 C 115.058594 320.449219 133.417969 315.84375 156.015625 307.761719 L 178.800781 299.601562 L 167.089844 366.492188 C 166.996094 367.074219 166.976562 367.660156 167.035156 368.25 C 167.097656 368.839844 167.230469 369.410156 167.441406 369.960938 C 167.652344 370.515625 167.929688 371.03125 168.277344 371.511719 C 168.621094 371.988281 169.023438 372.417969 169.480469 372.789062 C 169.941406 373.164062 170.4375 373.472656 170.976562 373.714844 C 171.515625 373.957031 172.078125 374.125 172.660156 374.21875 C 173.246094 374.3125 173.832031 374.328125 174.417969 374.269531 C 175.007812 374.207031 175.578125 374.070312 176.128906 373.859375 L 207.316406 361.496094 C 208.125 361.175781 208.839844 360.71875 209.46875 360.117188 C 210.097656 359.519531 210.589844 358.824219 210.949219 358.03125 L 247.40625 277.019531 L 262.84375 271.929688 C 263.253906 271.789062 263.648438 271.605469 264.023438 271.386719 C 264.398438 271.167969 264.75 270.917969 265.074219 270.628906 C 265.402344 270.339844 265.695312 270.027344 265.960938 269.679688 C 266.226562 269.335938 266.453125 268.96875 266.648438 268.578125 C 266.839844 268.1875 266.992188 267.785156 267.109375 267.363281 C 267.222656 266.945312 267.292969 266.519531 267.324219 266.085938 C 267.355469 265.652344 267.34375 265.21875 267.292969 264.789062 C 267.238281 264.355469 267.144531 263.933594 267.007812 263.519531 C 266.871094 263.109375 266.699219 262.710938 266.484375 262.332031 C 266.273438 261.953125 266.023438 261.597656 265.742188 261.269531 C 265.460938 260.9375 265.148438 260.636719 264.808594 260.367188 C 264.46875 260.097656 264.105469 259.863281 263.71875 259.664062 C 263.332031 259.464844 262.929688 259.304688 262.511719 259.183594 C 262.09375 259.0625 261.671875 258.984375 261.238281 258.949219 C 260.804688 258.910156 260.371094 258.914062 259.941406 258.960938 C 259.507812 259.007812 259.085938 259.097656 258.671875 259.226562 L 240.4375 265.238281 C 239.546875 265.53125 238.753906 265.992188 238.054688 266.621094 C 237.359375 267.246094 236.816406 267.988281 236.429688 268.84375 L 199.882812 350.066406 L 182.304688 357.03125 L 193.941406 290.59375 C 193.988281 290.304688 194.015625 290.019531 194.023438 289.730469 C 194.03125 289.4375 194.023438 289.148438 193.996094 288.863281 C 193.96875 288.574219 193.921875 288.289062 193.855469 288.003906 C 193.792969 287.722656 193.707031 287.445312 193.609375 287.171875 C 193.507812 286.902344 193.390625 286.636719 193.253906 286.378906 C 193.121094 286.125 192.96875 285.878906 192.804688 285.640625 C 192.636719 285.402344 192.457031 285.175781 192.257812 284.964844 C 192.0625 284.75 191.855469 284.550781 191.632812 284.363281 C 191.414062 284.175781 191.179688 284.003906 190.9375 283.847656 C 190.691406 283.691406 190.441406 283.550781 190.179688 283.425781 C 189.917969 283.300781 189.648438 283.195312 189.371094 283.105469 C 189.097656 283.015625 188.816406 282.945312 188.53125 282.890625 C 188.246094 282.839844 187.960938 282.804688 187.671875 282.789062 C 187.382812 282.773438 187.09375 282.773438 186.804688 282.796875 C 186.515625 282.816406 186.230469 282.859375 185.945312 282.914062 C 185.660156 282.972656 185.382812 283.050781 185.109375 283.144531 L 151.261719 295.273438 C 133.605469 302.414062 122.992188 302.179688 117.1875 300.738281 C 114.507812 299.960938 112.289062 298.484375 110.535156 296.3125 L 76.980469 256.164062 L 89.589844 252.28125 L 116.082031 273.410156 C 116.53125 273.769531 117.015625 274.066406 117.542969 274.296875 C 118.066406 274.53125 118.613281 274.691406 119.179688 274.78125 C 119.746094 274.875 120.3125 274.890625 120.886719 274.835938 C 121.457031 274.78125 122.011719 274.65625 122.550781 274.457031 C 149.238281 264.671875 202.667969 244.890625 229.125 235.226562 L 266.117188 221.625 C 275.542969 218.082031 299.636719 217.945312 312.824219 219.414062 C 326.511719 221.105469 329.058594 235.117188 314.839844 240.773438 L 284.179688 250.871094 C 283.769531 251.011719 283.375 251.191406 283 251.410156 C 282.625 251.628906 282.273438 251.882812 281.945312 252.171875 C 281.621094 252.457031 281.324219 252.773438 281.0625 253.121094 C 280.796875 253.464844 280.566406 253.832031 280.375 254.222656 C 280.179688 254.609375 280.027344 255.015625 279.914062 255.433594 C 279.800781 255.855469 279.726562 256.28125 279.695312 256.714844 C 279.664062 257.148438 279.675781 257.582031 279.730469 258.011719 C 279.785156 258.445312 279.878906 258.867188 280.015625 259.28125 C 280.148438 259.691406 280.324219 260.089844 280.535156 260.46875 C 280.75 260.847656 280.996094 261.203125 281.28125 261.53125 C 281.5625 261.863281 281.871094 262.164062 282.214844 262.433594 C 282.554688 262.703125 282.917969 262.9375 283.304688 263.136719 C 283.691406 263.335938 284.09375 263.496094 284.511719 263.617188 C 284.925781 263.738281 285.351562 263.816406 285.785156 263.851562 C 286.21875 263.890625 286.652344 263.886719 287.082031 263.839844 C 287.515625 263.792969 287.9375 263.703125 288.351562 263.574219 L 319.003906 253.476562 C 334.109375 248.867188 343.882812 229.734375 333.570312 216.957031 Z M 136.21875 204.320312 L 150.117188 198.679688 L 209.542969 228.167969 L 178.878906 239.460938 Z M 136.21875 204.320312 " fill-opacity="1" fill-rule="nonzero"/><g clip-path="url(#f8fe5a8a44)"><path fill="#000000" d="M 65.371094 231.652344 C 66.121094 231.644531 66.847656 231.511719 67.550781 231.257812 C 68.257812 231.003906 68.898438 230.640625 69.484375 230.171875 C 70.066406 229.703125 70.558594 229.152344 70.957031 228.515625 C 71.355469 227.882812 71.640625 227.199219 71.808594 226.46875 C 71.980469 225.742188 72.027344 225.003906 71.949219 224.257812 C 71.875 223.511719 71.679688 222.800781 71.363281 222.121094 C 71.046875 221.441406 70.632812 220.832031 70.113281 220.289062 C 69.59375 219.75 69 219.308594 68.332031 218.96875 L 43.535156 206.742188 L 43.535156 73.359375 L 155.550781 126.972656 L 155.550781 160.03125 C 155.558594 160.464844 155.605469 160.894531 155.695312 161.320312 C 155.785156 161.746094 155.917969 162.160156 156.085938 162.558594 C 156.257812 162.957031 156.464844 163.339844 156.710938 163.699219 C 156.953125 164.058594 157.230469 164.390625 157.539062 164.695312 C 157.851562 165 158.1875 165.273438 158.550781 165.511719 C 158.910156 165.753906 159.292969 165.957031 159.695312 166.121094 C 160.097656 166.285156 160.511719 166.410156 160.9375 166.492188 C 161.363281 166.578125 161.796875 166.621094 162.230469 166.621094 C 162.664062 166.621094 163.09375 166.578125 163.523438 166.492188 C 163.949219 166.410156 164.363281 166.285156 164.765625 166.121094 C 165.167969 165.957031 165.546875 165.753906 165.910156 165.511719 C 166.273438 165.273438 166.609375 165 166.917969 164.695312 C 167.230469 164.390625 167.507812 164.058594 167.75 163.699219 C 167.996094 163.339844 168.203125 162.957031 168.375 162.558594 C 168.542969 162.160156 168.675781 161.746094 168.765625 161.320312 C 168.855469 160.894531 168.902344 160.464844 168.910156 160.03125 L 168.910156 126.972656 L 197.761719 113.148438 L 197.613281 145.40625 C 197.613281 145.683594 197.632812 145.957031 197.667969 146.230469 C 197.703125 146.507812 197.753906 146.777344 197.824219 147.042969 C 197.890625 147.3125 197.976562 147.574219 198.078125 147.832031 C 198.175781 148.089844 198.292969 148.339844 198.425781 148.582031 C 198.558594 148.824219 198.703125 149.058594 198.863281 149.28125 C 199.023438 149.507812 199.195312 149.722656 199.382812 149.925781 C 199.570312 150.128906 199.769531 150.320312 199.980469 150.496094 C 200.1875 150.675781 200.410156 150.84375 200.640625 150.992188 C 200.871094 151.144531 201.109375 151.28125 201.355469 151.40625 C 201.605469 151.527344 201.859375 151.632812 202.117188 151.722656 C 202.378906 151.816406 202.644531 151.890625 202.914062 151.949219 C 203.183594 152.007812 203.457031 152.046875 203.730469 152.074219 C 204.003906 152.097656 204.28125 152.105469 204.558594 152.097656 C 204.832031 152.085938 205.105469 152.0625 205.378906 152.019531 C 205.652344 151.976562 205.921875 151.914062 206.1875 151.839844 C 206.449219 151.761719 206.710938 151.671875 206.964844 151.5625 L 241.714844 136.367188 C 242.304688 136.105469 242.847656 135.769531 243.34375 135.351562 C 243.839844 134.933594 244.261719 134.457031 244.617188 133.914062 C 244.972656 133.375 245.246094 132.796875 245.433594 132.175781 C 245.621094 131.554688 245.714844 130.921875 245.71875 130.277344 L 245.902344 90.136719 C 247.984375 89.15625 265.542969 80.675781 267.984375 79.542969 L 280.785156 73.433594 L 279.484375 177.824219 C 279.484375 178.257812 279.527344 178.691406 279.613281 179.117188 C 279.699219 179.542969 279.824219 179.957031 279.988281 180.359375 C 280.15625 180.757812 280.355469 181.140625 280.597656 181.503906 C 280.835938 181.867188 281.109375 182.199219 281.417969 182.511719 C 281.722656 182.820312 282.054688 183.09375 282.414062 183.339844 C 282.773438 183.582031 283.152344 183.789062 283.550781 183.960938 C 283.953125 184.128906 284.363281 184.257812 284.789062 184.347656 C 285.214844 184.4375 285.644531 184.484375 286.078125 184.492188 C 286.511719 184.496094 286.941406 184.460938 287.371094 184.382812 C 287.796875 184.300781 288.210938 184.183594 288.617188 184.023438 C 289.019531 183.863281 289.40625 183.667969 289.769531 183.433594 C 290.136719 183.199219 290.476562 182.929688 290.789062 182.628906 C 291.101562 182.328125 291.382812 182 291.632812 181.644531 C 291.882812 181.289062 292.09375 180.910156 292.269531 180.511719 C 292.445312 180.117188 292.582031 179.707031 292.675781 179.28125 C 292.773438 178.859375 292.828125 178.429688 292.839844 177.992188 L 294.28125 62.835938 C 294.273438 62.195312 294.175781 61.566406 293.996094 60.953125 C 293.8125 60.335938 293.546875 59.757812 293.207031 59.214844 C 292.863281 58.671875 292.453125 58.1875 291.972656 57.757812 C 291.496094 57.332031 290.96875 56.976562 290.394531 56.695312 L 168.257812 0.605469 C 167.394531 0.210938 166.488281 0.0078125 165.539062 0 C 164.589844 -0.0117188 163.679688 0.175781 162.8125 0.554688 L 34.191406 56.609375 C 33.605469 56.886719 33.070312 57.238281 32.582031 57.664062 C 32.09375 58.089844 31.671875 58.574219 31.320312 59.113281 C 30.964844 59.65625 30.691406 60.238281 30.496094 60.855469 C 30.304688 61.472656 30.199219 62.105469 30.179688 62.753906 L 30.179688 210.902344 C 30.179688 211.523438 30.265625 212.136719 30.4375 212.738281 C 30.609375 213.335938 30.859375 213.902344 31.1875 214.429688 C 31.515625 214.960938 31.910156 215.4375 32.375 215.855469 C 32.835938 216.273438 33.34375 216.625 33.902344 216.898438 C 35.585938 217.285156 64.210938 232.746094 65.371094 231.652344 Z M 121.996094 32.921875 L 224.21875 85.65625 C 222.007812 86.769531 206.402344 94.105469 204.683594 95.03125 C 204.675781 95.070312 102.851562 41.261719 102.84375 41.273438 Z M 232.378906 125.863281 L 211.015625 135.203125 L 211.152344 106.777344 L 232.515625 96.546875 Z M 165.398438 14.003906 L 271.835938 62.886719 C 264.25 66.550781 247.054688 74.683594 239.355469 78.425781 L 137.796875 26.035156 Z M 87.15625 48.109375 L 189.621094 102.210938 L 162.242188 115.300781 L 52.941406 63.027344 Z M 87.15625 48.109375 " fill-opacity="1" fill-rule="nonzero"/></g><g fill="#000000" fill-opacity="1"><g transform="translate(228.135745, 86.355546)"><g><path d="M 3.3125 -0.8125 L 2.859375 -0.703125 L 2.265625 -1.640625 L 0.6875 -1.25 L 0.609375 -0.15625 L 0.15625 -0.03125 L 0.515625 -4.03125 L 1.125 -4.1875 Z M 0.90625 -3.65625 L 0.734375 -1.625 L 2.046875 -1.9375 L 0.96875 -3.671875 Z M 0.90625 -3.65625 "/></g></g></g><g fill="#000000" fill-opacity="1"><g transform="translate(231.597142, 85.507176)"><g><path d="M 1.453125 -0.3125 C 1.234375 -0.25 1.023438 -0.25 0.828125 -0.3125 C 0.628906 -0.375 0.453125 -0.5 0.296875 -0.6875 C 0.148438 -0.882812 0.0351562 -1.140625 -0.046875 -1.453125 C -0.117188 -1.773438 -0.128906 -2.054688 -0.078125 -2.296875 C -0.0351562 -2.546875 0.0546875 -2.742188 0.203125 -2.890625 C 0.359375 -3.046875 0.550781 -3.148438 0.78125 -3.203125 C 0.96875 -3.253906 1.144531 -3.257812 1.3125 -3.21875 C 1.488281 -3.1875 1.648438 -3.097656 1.796875 -2.953125 L 1.828125 -2.984375 L 1.46875 -4.5 L 1.890625 -4.609375 L 2.84375 -0.703125 L 2.421875 -0.59375 L 2.328125 -1 L 2.28125 -0.984375 C 2.21875 -0.835938 2.117188 -0.703125 1.984375 -0.578125 C 1.847656 -0.453125 1.671875 -0.363281 1.453125 -0.3125 Z M 1.484375 -0.703125 C 1.742188 -0.765625 1.929688 -0.898438 2.046875 -1.109375 C 2.160156 -1.328125 2.171875 -1.613281 2.078125 -1.96875 C 1.992188 -2.332031 1.847656 -2.582031 1.640625 -2.71875 C 1.441406 -2.863281 1.210938 -2.90625 0.953125 -2.84375 C 0.691406 -2.769531 0.507812 -2.628906 0.40625 -2.421875 C 0.3125 -2.210938 0.304688 -1.921875 0.390625 -1.546875 C 0.566406 -0.835938 0.929688 -0.554688 1.484375 -0.703125 Z M 1.484375 -0.703125 "/></g></g></g><g fill="#000000" fill-opacity="1"><g transform="translate(234.914945, 84.694)"><g><path d="M 1.453125 -0.3125 C 1.234375 -0.25 1.023438 -0.25 0.828125 -0.3125 C 0.628906 -0.375 0.453125 -0.5 0.296875 -0.6875 C 0.148438 -0.882812 0.0351562 -1.140625 -0.046875 -1.453125 C -0.117188 -1.773438 -0.128906 -2.054688 -0.078125 -2.296875 C -0.0351562 -2.546875 0.0546875 -2.742188 0.203125 -2.890625 C 0.359375 -3.046875 0.550781 -3.148438 0.78125 -3.203125 C 0.96875 -3.253906 1.144531 -3.257812 1.3125 -3.21875 C 1.488281 -3.1875 1.648438 -3.097656 1.796875 -2.953125 L 1.828125 -2.984375 L 1.46875 -4.5 L 1.890625 -4.609375 L 2.84375 -0.703125 L 2.421875 -0.59375 L 2.328125 -1 L 2.28125 -0.984375 C 2.21875 -0.835938 2.117188 -0.703125 1.984375 -0.578125 C 1.847656 -0.453125 1.671875 -0.363281 1.453125 -0.3125 Z M 1.484375 -0.703125 C 1.742188 -0.765625 1.929688 -0.898438 2.046875 -1.109375 C 2.160156 -1.328125 2.171875 -1.613281 2.078125 -1.96875 C 1.992188 -2.332031 1.847656 -2.582031 1.640625 -2.71875 C 1.441406 -2.863281 1.210938 -2.90625 0.953125 -2.84375 C 0.691406 -2.769531 0.507812 -2.628906 0.40625 -2.421875 C 0.3125 -2.210938 0.304688 -1.921875 0.390625 -1.546875 C 0.566406 -0.835938 0.929688 -0.554688 1.484375 -0.703125 Z M 1.484375 -0.703125 "/></g></g></g><g fill="#000000" fill-opacity="1"><g transform="translate(238.232749, 83.880824)"><g/></g></g><g fill="#000000" fill-opacity="1"><g transform="translate(239.497393, 83.570867)"><g><path d="M 1.171875 -0.234375 C 0.890625 -0.160156 0.648438 -0.175781 0.453125 -0.28125 C 0.265625 -0.382812 0.140625 -0.570312 0.078125 -0.84375 C 0.0351562 -1 0.0351562 -1.144531 0.078125 -1.28125 C 0.128906 -1.414062 0.210938 -1.535156 0.328125 -1.640625 C 0.453125 -1.742188 0.628906 -1.847656 0.859375 -1.953125 C 1.046875 -2.023438 1.1875 -2.09375 1.28125 -2.15625 C 1.375 -2.226562 1.429688 -2.289062 1.453125 -2.34375 C 1.472656 -2.40625 1.472656 -2.476562 1.453125 -2.5625 C 1.421875 -2.695312 1.351562 -2.785156 1.25 -2.828125 C 1.15625 -2.867188 1.007812 -2.863281 0.8125 -2.8125 C 0.644531 -2.769531 0.503906 -2.695312 0.390625 -2.59375 C 0.285156 -2.5 0.195312 -2.375 0.125 -2.21875 L 0.0625 -2.203125 L -0.21875 -2.4375 C -0.125 -2.613281 -0.00390625 -2.769531 0.140625 -2.90625 C 0.296875 -3.039062 0.488281 -3.132812 0.71875 -3.1875 C 1.050781 -3.269531 1.3125 -3.253906 1.5 -3.140625 C 1.6875 -3.023438 1.8125 -2.84375 1.875 -2.59375 L 2.234375 -1.125 C 2.273438 -0.96875 2.363281 -0.90625 2.5 -0.9375 C 2.550781 -0.957031 2.597656 -0.976562 2.640625 -1 L 2.671875 -1 L 2.78125 -0.734375 C 2.757812 -0.703125 2.722656 -0.675781 2.671875 -0.65625 C 2.617188 -0.632812 2.566406 -0.617188 2.515625 -0.609375 C 2.367188 -0.566406 2.25 -0.566406 2.15625 -0.609375 C 2.0625 -0.660156 1.984375 -0.75 1.921875 -0.875 L 1.875 -0.859375 C 1.820312 -0.703125 1.738281 -0.570312 1.625 -0.46875 C 1.519531 -0.363281 1.367188 -0.285156 1.171875 -0.234375 Z M 1.1875 -0.578125 C 1.332031 -0.609375 1.453125 -0.671875 1.546875 -0.765625 C 1.640625 -0.867188 1.695312 -0.992188 1.71875 -1.140625 C 1.75 -1.285156 1.742188 -1.445312 1.703125 -1.625 L 1.625 -1.96875 L 1.578125 -1.953125 C 1.523438 -1.898438 1.457031 -1.847656 1.375 -1.796875 C 1.289062 -1.742188 1.171875 -1.691406 1.015625 -1.640625 C 0.867188 -1.578125 0.75 -1.507812 0.65625 -1.4375 C 0.570312 -1.375 0.519531 -1.300781 0.5 -1.21875 C 0.476562 -1.132812 0.484375 -1.046875 0.515625 -0.953125 C 0.554688 -0.785156 0.632812 -0.664062 0.75 -0.59375 C 0.863281 -0.53125 1.007812 -0.523438 1.1875 -0.578125 Z M 1.1875 -0.578125 "/></g></g></g><g fill="#000000" fill-opacity="1"><g transform="translate(242.371816, 82.866361)"><g/></g></g><g fill="#000000" fill-opacity="1"><g transform="translate(243.63646, 82.556404)"><g><path d="M 1.125 -0.21875 C 0.914062 -0.175781 0.738281 -0.191406 0.59375 -0.265625 C 0.457031 -0.347656 0.363281 -0.503906 0.3125 -0.734375 L -0.484375 -4.015625 L -0.078125 -4.125 L 0.71875 -0.859375 C 0.75 -0.742188 0.789062 -0.664062 0.84375 -0.625 C 0.90625 -0.582031 0.984375 -0.570312 1.078125 -0.59375 C 1.140625 -0.613281 1.195312 -0.640625 1.25 -0.671875 L 1.28125 -0.65625 L 1.40625 -0.359375 C 1.375 -0.328125 1.332031 -0.300781 1.28125 -0.28125 C 1.238281 -0.257812 1.1875 -0.238281 1.125 -0.21875 Z M 1.125 -0.21875 "/></g></g></g><g fill="#000000" fill-opacity="1"><g transform="translate(245.147987, 82.185937)"><g><path d="M -0.125 -3.484375 C -0.207031 -3.460938 -0.285156 -3.46875 -0.359375 -3.5 C -0.429688 -3.539062 -0.476562 -3.609375 -0.5 -3.703125 C -0.519531 -3.785156 -0.503906 -3.863281 -0.453125 -3.9375 C -0.410156 -4.007812 -0.347656 -4.054688 -0.265625 -4.078125 C -0.179688 -4.097656 -0.101562 -4.082031 -0.03125 -4.03125 C 0.03125 -3.988281 0.0703125 -3.925781 0.09375 -3.84375 C 0.113281 -3.75 0.101562 -3.671875 0.0625 -3.609375 C 0.0195312 -3.546875 -0.0390625 -3.503906 -0.125 -3.484375 Z M 0.484375 -0.125 L -0.203125 -2.90625 L 0.203125 -3 L 0.890625 -0.21875 Z M 0.484375 -0.125 "/></g></g></g><g fill="#000000" fill-opacity="1"><g transform="translate(246.525998, 81.848194)"><g><path d="M 1.765625 -0.90625 L 1.96875 -0.640625 C 1.914062 -0.554688 1.84375 -0.484375 1.75 -0.421875 C 1.65625 -0.367188 1.546875 -0.328125 1.421875 -0.296875 C 0.890625 -0.171875 0.554688 -0.378906 0.421875 -0.921875 L 0.015625 -2.59375 L -0.46875 -2.46875 L -0.5625 -2.8125 L -0.078125 -2.9375 L -0.21875 -3.53125 L 0.171875 -3.6875 L 0.328125 -3.03125 L 1.21875 -3.25 L 1.3125 -2.90625 L 0.421875 -2.6875 L 0.828125 -1.046875 C 0.898438 -0.722656 1.078125 -0.597656 1.359375 -0.671875 C 1.515625 -0.703125 1.632812 -0.773438 1.71875 -0.890625 Z M 1.765625 -0.90625 "/></g></g></g><g fill="#000000" fill-opacity="1"><g transform="translate(248.642136, 81.32954)"><g><path d="M 1.765625 -0.90625 L 1.96875 -0.640625 C 1.914062 -0.554688 1.84375 -0.484375 1.75 -0.421875 C 1.65625 -0.367188 1.546875 -0.328125 1.421875 -0.296875 C 0.890625 -0.171875 0.554688 -0.378906 0.421875 -0.921875 L 0.015625 -2.59375 L -0.46875 -2.46875 L -0.5625 -2.8125 L -0.078125 -2.9375 L -0.21875 -3.53125 L 0.171875 -3.6875 L 0.328125 -3.03125 L 1.21875 -3.25 L 1.3125 -2.90625 L 0.421875 -2.6875 L 0.828125 -1.046875 C 0.898438 -0.722656 1.078125 -0.597656 1.359375 -0.671875 C 1.515625 -0.703125 1.632812 -0.773438 1.71875 -0.890625 Z M 1.765625 -0.90625 "/></g></g></g><g fill="#000000" fill-opacity="1"><g transform="translate(250.758274, 80.810885)"><g><path d="M 1.125 -0.21875 C 0.914062 -0.175781 0.738281 -0.191406 0.59375 -0.265625 C 0.457031 -0.347656 0.363281 -0.503906 0.3125 -0.734375 L -0.484375 -4.015625 L -0.078125 -4.125 L 0.71875 -0.859375 C 0.75 -0.742188 0.789062 -0.664062 0.84375 -0.625 C 0.90625 -0.582031 0.984375 -0.570312 1.078125 -0.59375 C 1.140625 -0.613281 1.195312 -0.640625 1.25 -0.671875 L 1.28125 -0.65625 L 1.40625 -0.359375 C 1.375 -0.328125 1.332031 -0.300781 1.28125 -0.28125 C 1.238281 -0.257812 1.1875 -0.238281 1.125 -0.21875 Z M 1.125 -0.21875 "/></g></g></g><g fill="#000000" fill-opacity="1"><g transform="translate(252.269801, 80.440418)"><g><path d="M 2.328125 -1.9375 L 0.4375 -1.484375 C 0.53125 -1.148438 0.671875 -0.921875 0.859375 -0.796875 C 1.046875 -0.671875 1.265625 -0.640625 1.515625 -0.703125 C 1.710938 -0.753906 1.863281 -0.828125 1.96875 -0.921875 C 2.082031 -1.023438 2.15625 -1.164062 2.1875 -1.34375 L 2.21875 -1.359375 L 2.546875 -1.25 C 2.503906 -1.019531 2.410156 -0.828125 2.265625 -0.671875 C 2.117188 -0.523438 1.898438 -0.414062 1.609375 -0.34375 C 1.347656 -0.28125 1.109375 -0.273438 0.890625 -0.328125 C 0.671875 -0.390625 0.476562 -0.515625 0.3125 -0.703125 C 0.15625 -0.890625 0.0351562 -1.140625 -0.046875 -1.453125 C -0.117188 -1.773438 -0.125 -2.054688 -0.0625 -2.296875 C -0.0078125 -2.546875 0.0976562 -2.75 0.265625 -2.90625 C 0.429688 -3.0625 0.632812 -3.171875 0.875 -3.234375 C 1.226562 -3.316406 1.53125 -3.28125 1.78125 -3.125 C 2.03125 -2.96875 2.207031 -2.695312 2.3125 -2.3125 C 2.351562 -2.15625 2.375 -2.039062 2.375 -1.96875 Z M 1.90625 -2.203125 C 1.820312 -2.492188 1.703125 -2.691406 1.546875 -2.796875 C 1.390625 -2.898438 1.195312 -2.925781 0.96875 -2.875 C 0.726562 -2.8125 0.550781 -2.691406 0.4375 -2.515625 C 0.332031 -2.347656 0.300781 -2.117188 0.34375 -1.828125 Z M 1.90625 -2.203125 "/></g></g></g><g fill="#000000" fill-opacity="1"><g transform="translate(255.232394, 79.714303)"><g/></g></g><g fill="#000000" fill-opacity="1"><g transform="translate(256.497039, 79.404345)"><g><path d="M 1.859375 -0.40625 C 1.648438 -0.351562 1.457031 -0.347656 1.28125 -0.390625 C 1.113281 -0.429688 0.96875 -0.503906 0.84375 -0.609375 L 0.796875 -0.59375 L 0.890625 -0.21875 L 0.484375 -0.125 L -0.46875 -4.03125 L -0.0625 -4.125 L 0.3125 -2.59375 L 0.359375 -2.59375 C 0.492188 -2.96875 0.757812 -3.203125 1.15625 -3.296875 C 1.394531 -3.359375 1.613281 -3.351562 1.8125 -3.28125 C 2.007812 -3.21875 2.179688 -3.085938 2.328125 -2.890625 C 2.472656 -2.691406 2.582031 -2.429688 2.65625 -2.109375 C 2.738281 -1.796875 2.757812 -1.519531 2.71875 -1.28125 C 2.675781 -1.050781 2.578125 -0.859375 2.421875 -0.703125 C 2.273438 -0.554688 2.085938 -0.457031 1.859375 -0.40625 Z M 1.671875 -0.734375 C 2.222656 -0.867188 2.410156 -1.289062 2.234375 -2 C 2.148438 -2.375 2.007812 -2.628906 1.8125 -2.765625 C 1.625 -2.910156 1.398438 -2.945312 1.140625 -2.875 C 0.867188 -2.8125 0.679688 -2.671875 0.578125 -2.453125 C 0.472656 -2.242188 0.460938 -1.957031 0.546875 -1.59375 C 0.640625 -1.238281 0.78125 -0.988281 0.96875 -0.84375 C 1.164062 -0.707031 1.398438 -0.671875 1.671875 -0.734375 Z M 1.671875 -0.734375 "/></g></g></g><g fill="#000000" fill-opacity="1"><g transform="translate(259.812321, 78.591787)"><g><path d="M -0.125 -3.484375 C -0.207031 -3.460938 -0.285156 -3.46875 -0.359375 -3.5 C -0.429688 -3.539062 -0.476562 -3.609375 -0.5 -3.703125 C -0.519531 -3.785156 -0.503906 -3.863281 -0.453125 -3.9375 C -0.410156 -4.007812 -0.347656 -4.054688 -0.265625 -4.078125 C -0.179688 -4.097656 -0.101562 -4.082031 -0.03125 -4.03125 C 0.03125 -3.988281 0.0703125 -3.925781 0.09375 -3.84375 C 0.113281 -3.75 0.101562 -3.671875 0.0625 -3.609375 C 0.0195312 -3.546875 -0.0390625 -3.503906 -0.125 -3.484375 Z M 0.484375 -0.125 L -0.203125 -2.90625 L 0.203125 -3 L 0.890625 -0.21875 Z M 0.484375 -0.125 "/></g></g></g><g fill="#000000" fill-opacity="1"><g transform="translate(261.190332, 78.254044)"><g><path d="M 1.765625 -0.90625 L 1.96875 -0.640625 C 1.914062 -0.554688 1.84375 -0.484375 1.75 -0.421875 C 1.65625 -0.367188 1.546875 -0.328125 1.421875 -0.296875 C 0.890625 -0.171875 0.554688 -0.378906 0.421875 -0.921875 L 0.015625 -2.59375 L -0.46875 -2.46875 L -0.5625 -2.8125 L -0.078125 -2.9375 L -0.21875 -3.53125 L 0.171875 -3.6875 L 0.328125 -3.03125 L 1.21875 -3.25 L 1.3125 -2.90625 L 0.421875 -2.6875 L 0.828125 -1.046875 C 0.898438 -0.722656 1.078125 -0.597656 1.359375 -0.671875 C 1.515625 -0.703125 1.632812 -0.773438 1.71875 -0.890625 Z M 1.765625 -0.90625 "/></g></g></g><g fill="#000000" fill-opacity="1"><g transform="translate(263.30647, 77.73539)"><g/></g></g><g fill="#000000" fill-opacity="1"><g transform="translate(264.571114, 77.425432)"><g><path d="M 1.609375 -0.34375 C 1.347656 -0.28125 1.109375 -0.273438 0.890625 -0.328125 C 0.671875 -0.390625 0.476562 -0.515625 0.3125 -0.703125 C 0.144531 -0.898438 0.0234375 -1.148438 -0.046875 -1.453125 C -0.117188 -1.765625 -0.125 -2.039062 -0.0625 -2.28125 C -0.0078125 -2.53125 0.09375 -2.734375 0.25 -2.890625 C 0.414062 -3.054688 0.628906 -3.171875 0.890625 -3.234375 C 1.148438 -3.296875 1.390625 -3.289062 1.609375 -3.21875 C 1.835938 -3.15625 2.03125 -3.023438 2.1875 -2.828125 C 2.351562 -2.640625 2.472656 -2.390625 2.546875 -2.078125 C 2.617188 -1.773438 2.628906 -1.5 2.578125 -1.25 C 2.523438 -1.007812 2.414062 -0.8125 2.25 -0.65625 C 2.082031 -0.507812 1.867188 -0.40625 1.609375 -0.34375 Z M 1.515625 -0.703125 C 1.785156 -0.765625 1.972656 -0.898438 2.078125 -1.109375 C 2.191406 -1.328125 2.203125 -1.617188 2.109375 -1.984375 C 2.023438 -2.359375 1.882812 -2.609375 1.6875 -2.734375 C 1.488281 -2.867188 1.253906 -2.90625 0.984375 -2.84375 C 0.710938 -2.78125 0.523438 -2.640625 0.421875 -2.421875 C 0.316406 -2.210938 0.304688 -1.921875 0.390625 -1.546875 C 0.484375 -1.179688 0.625 -0.929688 0.8125 -0.796875 C 1.007812 -0.671875 1.242188 -0.640625 1.515625 -0.703125 Z M 1.515625 -0.703125 "/></g></g></g><g fill="#000000" fill-opacity="1"><g transform="translate(267.760436, 76.643747)"><g><path d="M 0.625 -0.15625 L 0.03125 -2.59375 L -0.453125 -2.46875 L -0.546875 -2.8125 L -0.0625 -2.9375 C -0.113281 -3.039062 -0.15625 -3.148438 -0.1875 -3.265625 C -0.226562 -3.453125 -0.226562 -3.613281 -0.1875 -3.75 C -0.144531 -3.894531 -0.0625 -4.015625 0.0625 -4.109375 C 0.1875 -4.203125 0.332031 -4.269531 0.5 -4.3125 C 0.78125 -4.382812 1.007812 -4.375 1.1875 -4.28125 L 1.09375 -3.953125 L 1.046875 -3.9375 C 0.929688 -3.988281 0.78125 -3.992188 0.59375 -3.953125 C 0.4375 -3.910156 0.320312 -3.835938 0.25 -3.734375 C 0.1875 -3.640625 0.175781 -3.507812 0.21875 -3.34375 C 0.238281 -3.25 0.28125 -3.144531 0.34375 -3.03125 L 1.21875 -3.25 L 1.3125 -2.90625 L 0.4375 -2.6875 L 1.03125 -0.25 Z M 0.625 -0.15625 "/></g></g></g><g fill="#000000" fill-opacity="1"><g transform="translate(269.740537, 76.158435)"><g/></g></g><g fill="#000000" fill-opacity="1"><g transform="translate(271.005181, 75.848477)"><g><path d="M 1.859375 -0.40625 C 1.648438 -0.351562 1.457031 -0.347656 1.28125 -0.390625 C 1.113281 -0.429688 0.96875 -0.503906 0.84375 -0.609375 L 0.796875 -0.59375 L 0.890625 -0.21875 L 0.484375 -0.125 L -0.46875 -4.03125 L -0.0625 -4.125 L 0.3125 -2.59375 L 0.359375 -2.59375 C 0.492188 -2.96875 0.757812 -3.203125 1.15625 -3.296875 C 1.394531 -3.359375 1.613281 -3.351562 1.8125 -3.28125 C 2.007812 -3.21875 2.179688 -3.085938 2.328125 -2.890625 C 2.472656 -2.691406 2.582031 -2.429688 2.65625 -2.109375 C 2.738281 -1.796875 2.757812 -1.519531 2.71875 -1.28125 C 2.675781 -1.050781 2.578125 -0.859375 2.421875 -0.703125 C 2.273438 -0.554688 2.085938 -0.457031 1.859375 -0.40625 Z M 1.671875 -0.734375 C 2.222656 -0.867188 2.410156 -1.289062 2.234375 -2 C 2.148438 -2.375 2.007812 -2.628906 1.8125 -2.765625 C 1.625 -2.910156 1.398438 -2.945312 1.140625 -2.875 C 0.867188 -2.8125 0.679688 -2.671875 0.578125 -2.453125 C 0.472656 -2.242188 0.460938 -1.957031 0.546875 -1.59375 C 0.640625 -1.238281 0.78125 -0.988281 0.96875 -0.84375 C 1.164062 -0.707031 1.398438 -0.671875 1.671875 -0.734375 Z M 1.671875 -0.734375 "/></g></g></g><g fill="#000000" fill-opacity="1"><g transform="translate(274.320464, 75.035919)"><g><path d="M 1.609375 -0.34375 C 1.347656 -0.28125 1.109375 -0.273438 0.890625 -0.328125 C 0.671875 -0.390625 0.476562 -0.515625 0.3125 -0.703125 C 0.144531 -0.898438 0.0234375 -1.148438 -0.046875 -1.453125 C -0.117188 -1.765625 -0.125 -2.039062 -0.0625 -2.28125 C -0.0078125 -2.53125 0.09375 -2.734375 0.25 -2.890625 C 0.414062 -3.054688 0.628906 -3.171875 0.890625 -3.234375 C 1.148438 -3.296875 1.390625 -3.289062 1.609375 -3.21875 C 1.835938 -3.15625 2.03125 -3.023438 2.1875 -2.828125 C 2.351562 -2.640625 2.472656 -2.390625 2.546875 -2.078125 C 2.617188 -1.773438 2.628906 -1.5 2.578125 -1.25 C 2.523438 -1.007812 2.414062 -0.8125 2.25 -0.65625 C 2.082031 -0.507812 1.867188 -0.40625 1.609375 -0.34375 Z M 1.515625 -0.703125 C 1.785156 -0.765625 1.972656 -0.898438 2.078125 -1.109375 C 2.191406 -1.328125 2.203125 -1.617188 2.109375 -1.984375 C 2.023438 -2.359375 1.882812 -2.609375 1.6875 -2.734375 C 1.488281 -2.867188 1.253906 -2.90625 0.984375 -2.84375 C 0.710938 -2.78125 0.523438 -2.640625 0.421875 -2.421875 C 0.316406 -2.210938 0.304688 -1.921875 0.390625 -1.546875 C 0.484375 -1.179688 0.625 -0.929688 0.8125 -0.796875 C 1.007812 -0.671875 1.242188 -0.640625 1.515625 -0.703125 Z M 1.515625 -0.703125 "/></g></g></g><g fill="#000000" fill-opacity="1"><g transform="translate(277.509786, 74.254233)"><g><path d="M 1.453125 -0.3125 C 1.234375 -0.25 1.023438 -0.25 0.828125 -0.3125 C 0.628906 -0.375 0.453125 -0.5 0.296875 -0.6875 C 0.148438 -0.882812 0.0351562 -1.140625 -0.046875 -1.453125 C -0.117188 -1.773438 -0.128906 -2.054688 -0.078125 -2.296875 C -0.0351562 -2.546875 0.0546875 -2.742188 0.203125 -2.890625 C 0.359375 -3.046875 0.550781 -3.148438 0.78125 -3.203125 C 0.96875 -3.253906 1.144531 -3.257812 1.3125 -3.21875 C 1.488281 -3.1875 1.648438 -3.097656 1.796875 -2.953125 L 1.828125 -2.984375 L 1.46875 -4.5 L 1.890625 -4.609375 L 2.84375 -0.703125 L 2.421875 -0.59375 L 2.328125 -1 L 2.28125 -0.984375 C 2.21875 -0.835938 2.117188 -0.703125 1.984375 -0.578125 C 1.847656 -0.453125 1.671875 -0.363281 1.453125 -0.3125 Z M 1.484375 -0.703125 C 1.742188 -0.765625 1.929688 -0.898438 2.046875 -1.109375 C 2.160156 -1.328125 2.171875 -1.613281 2.078125 -1.96875 C 1.992188 -2.332031 1.847656 -2.582031 1.640625 -2.71875 C 1.441406 -2.863281 1.210938 -2.90625 0.953125 -2.84375 C 0.691406 -2.769531 0.507812 -2.628906 0.40625 -2.421875 C 0.3125 -2.210938 0.304688 -1.921875 0.390625 -1.546875 C 0.566406 -0.835938 0.929688 -0.554688 1.484375 -0.703125 Z M 1.484375 -0.703125 "/></g></g></g><g fill="#000000" fill-opacity="1"><g transform="translate(280.82759, 73.441057)"><g><path d="M 0.859375 1.046875 C 0.753906 1.078125 0.660156 1.09375 0.578125 1.09375 C 0.492188 1.09375 0.414062 1.085938 0.34375 1.078125 L 0.34375 0.734375 L 0.390625 0.703125 C 0.429688 0.710938 0.484375 0.710938 0.546875 0.703125 C 0.609375 0.703125 0.675781 0.691406 0.75 0.671875 C 0.863281 0.648438 0.945312 0.613281 1 0.5625 C 1.0625 0.519531 1.113281 0.457031 1.15625 0.375 C 1.195312 0.289062 1.222656 0.179688 1.234375 0.046875 L 1.28125 -0.25 L -0.546875 -2.8125 L -0.09375 -2.921875 L 1.328125 -0.875 L 1.375 -0.890625 L 1.671875 -3.359375 L 2.09375 -3.46875 L 1.640625 0.0625 C 1.609375 0.257812 1.5625 0.421875 1.5 0.546875 C 1.445312 0.679688 1.363281 0.785156 1.25 0.859375 C 1.144531 0.941406 1.015625 1.003906 0.859375 1.046875 Z M 0.859375 1.046875 "/></g></g></g><g fill="#000000" fill-opacity="1"><g transform="translate(283.757435, 72.722968)"><g/></g></g><g fill="#000000" fill-opacity="1"><g transform="translate(285.022079, 72.413011)"><g><path d="M 1.765625 -0.90625 L 1.96875 -0.640625 C 1.914062 -0.554688 1.84375 -0.484375 1.75 -0.421875 C 1.65625 -0.367188 1.546875 -0.328125 1.421875 -0.296875 C 0.890625 -0.171875 0.554688 -0.378906 0.421875 -0.921875 L 0.015625 -2.59375 L -0.46875 -2.46875 L -0.5625 -2.8125 L -0.078125 -2.9375 L -0.21875 -3.53125 L 0.171875 -3.6875 L 0.328125 -3.03125 L 1.21875 -3.25 L 1.3125 -2.90625 L 0.421875 -2.6875 L 0.828125 -1.046875 C 0.898438 -0.722656 1.078125 -0.597656 1.359375 -0.671875 C 1.515625 -0.703125 1.632812 -0.773438 1.71875 -0.890625 Z M 1.765625 -0.90625 "/></g></g></g><g fill="#000000" fill-opacity="1"><g transform="translate(287.138217, 71.894356)"><g><path d="M 2.328125 -1.9375 L 0.4375 -1.484375 C 0.53125 -1.148438 0.671875 -0.921875 0.859375 -0.796875 C 1.046875 -0.671875 1.265625 -0.640625 1.515625 -0.703125 C 1.710938 -0.753906 1.863281 -0.828125 1.96875 -0.921875 C 2.082031 -1.023438 2.15625 -1.164062 2.1875 -1.34375 L 2.21875 -1.359375 L 2.546875 -1.25 C 2.503906 -1.019531 2.410156 -0.828125 2.265625 -0.671875 C 2.117188 -0.523438 1.898438 -0.414062 1.609375 -0.34375 C 1.347656 -0.28125 1.109375 -0.273438 0.890625 -0.328125 C 0.671875 -0.390625 0.476562 -0.515625 0.3125 -0.703125 C 0.15625 -0.890625 0.0351562 -1.140625 -0.046875 -1.453125 C -0.117188 -1.773438 -0.125 -2.054688 -0.0625 -2.296875 C -0.0078125 -2.546875 0.0976562 -2.75 0.265625 -2.90625 C 0.429688 -3.0625 0.632812 -3.171875 0.875 -3.234375 C 1.226562 -3.316406 1.53125 -3.28125 1.78125 -3.125 C 2.03125 -2.96875 2.207031 -2.695312 2.3125 -2.3125 C 2.351562 -2.15625 2.375 -2.039062 2.375 -1.96875 Z M 1.90625 -2.203125 C 1.820312 -2.492188 1.703125 -2.691406 1.546875 -2.796875 C 1.390625 -2.898438 1.195312 -2.925781 0.96875 -2.875 C 0.726562 -2.8125 0.550781 -2.691406 0.4375 -2.515625 C 0.332031 -2.347656 0.300781 -2.117188 0.34375 -1.828125 Z M 1.90625 -2.203125 "/></g></g></g><g fill="#000000" fill-opacity="1"><g transform="translate(290.100811, 71.168241)"><g><path d="M 0.578125 -0.140625 L 0.125 -0.03125 L 0.625 -1.671875 L -0.515625 -2.828125 L -0.046875 -2.9375 L 0.859375 -2.03125 L 0.90625 -2.046875 L 1.28125 -3.265625 L 1.734375 -3.375 L 1.265625 -1.828125 L 2.453125 -0.609375 L 2 -0.484375 L 1.03125 -1.5 L 0.984375 -1.484375 Z M 0.578125 -0.140625 "/></g></g></g><g fill="#000000" fill-opacity="1"><g transform="translate(292.69056, 70.533507)"><g><path d="M 1.765625 -0.90625 L 1.96875 -0.640625 C 1.914062 -0.554688 1.84375 -0.484375 1.75 -0.421875 C 1.65625 -0.367188 1.546875 -0.328125 1.421875 -0.296875 C 0.890625 -0.171875 0.554688 -0.378906 0.421875 -0.921875 L 0.015625 -2.59375 L -0.46875 -2.46875 L -0.5625 -2.8125 L -0.078125 -2.9375 L -0.21875 -3.53125 L 0.171875 -3.6875 L 0.328125 -3.03125 L 1.21875 -3.25 L 1.3125 -2.90625 L 0.421875 -2.6875 L 0.828125 -1.046875 C 0.898438 -0.722656 1.078125 -0.597656 1.359375 -0.671875 C 1.515625 -0.703125 1.632812 -0.773438 1.71875 -0.890625 Z M 1.765625 -0.90625 "/></g></g></g></svg>